# xmcd
#
# Track frame offsets:
#	150
#	14571
#	30015
#	47296
#	67612
#	82485
#	99454
#	113007
#	128208
#	142453
#	159620
#	175497
#	190158
#	205379
#
# Disc length: 2998 seconds
#
# Revision: 1
# Processed by: cddbd v1.5.2PL0 Copyright (c) Steve Scherf et al.
# Submitted via: audiograbber 1.83.01
#
DISCID=bf0bb40e
DTITLE=PAIXAO SERTANEJA-2 - PAIXAO SERTANEJA-2
DYEAR=2009
DGENRE=Country
TTITLE0=Leilao - Cesar Menotti and Fabiano
TTITLE1=Amigo Apaixonado - Victor and Leo
TTITLE2=Bala de Prata - Fernando and Sorocaba
TTITLE3=Morro de Saudade - Hugo Pena and Gabriel
TTITLE4=Falando Serio - Joao Bosco and Vinicius
TTITLE5=Cala a Boca e Me Beija - Carlos and Jader
TTITLE6=Bola de Papel - Tche Garotos
TTITLE7=So de Voce - Joao Neto and Frederico
TTITLE8=De Tanto Te Querer - Jorge and Mateus
TTITLE9=Porque - Alan and Alex
TTITLE10=Amor sem Fim - Nechivile
TTITLE11=A Mulher Mais Feliz - Marco and Mario
TTITLE12=Tudo no Olhar - Marcos and Belutti
TTITLE13=Estrela - Alvaro and Daniel
EXTD=
EXTT0=
EXTT1=
EXTT2=
EXTT3=
EXTT4=
EXTT5=
EXTT6=
EXTT7=
EXTT8=
EXTT9=
EXTT10=
EXTT11=
EXTT12=
EXTT13=
PLAYORDER=
